<svg xmlns="http://www.w3.org/2000/svg" xmlns:xlink="http://www.w3.org/1999/xlink" viewBox="0 0 256 256"><defs><style>.a{fill:#f38237;}.b{opacity:0.1;}.c{fill:#fff;opacity:0.2;}.d{fill:url(#a);}.e{fill:url(#b);}</style><linearGradient id="a" x1="-293.42" y1="260.82" x2="-249.96" y2="260.93" gradientTransform="translate(-207.04 7.99) rotate(-120)" gradientUnits="userSpaceOnUse"><stop offset="0.02" stop-opacity="0"/><stop offset="1" stop-opacity="0.14"/></linearGradient><linearGradient id="b" x1="-292.34" y1="247.8" x2="-249.02" y2="247.91" gradientTransform="translate(59.33 -223.84) rotate(-60)" xlink:href="#a"/></defs><title>Texture Haven Logo</title><polygon class="a" points="21.5 164.99 21.5 66.49 128 5 234.5 66.49 234.5 164.99 170.66 128.13 170.66 226.37 128 251 85.33 226.37 85.33 128.13 21.5 164.99"/><polygon class="b" points="21.5 164.99 213.3 54.25 210.71 52.75 24.5 160.26 21.5 164.99"/><polygon class="b" points="125.4 249.5 128 251 170.66 226.37 170.66 128.13 167.67 126.4 167.66 225.1 125.4 249.5"/><polygon class="b" points="231.5 163.26 234.5 164.99 234.5 66.49 231.5 64.76 231.5 163.26"/><polygon class="c" points="21.5 164.99 21.5 66.49 128 5 130.59 6.5 24.5 67.76 24.5 160.26 21.5 164.99"/><polygon class="c" points="85.33 226.37 85.33 128.13 88.33 126.4 88.33 228.1 85.33 226.37"/><polygon class="d" points="85.33 177.26 85.33 128.13 213.3 54.25 234.5 66.49 234.5 91.37 85.33 177.26"/><polygon class="e" points="85.33 128.13 128 103.5 170.66 128.13 170.66 177.53 85.33 128.13"/></svg>