<svg xmlns="http://www.w3.org/2000/svg" xmlns:xlink="http://www.w3.org/1999/xlink" viewBox="0 0 256 256"><defs><style>.a{fill:#41bbd9;}.b{opacity:0.1;}.c{fill:#fff;opacity:0.15;}.d{fill:url(#a);}.e{fill:url(#b);}.f{fill:url(#c);}.g{fill:url(#d);}</style><linearGradient id="a" x1="102.83" y1="127.93" x2="160.2" y2="128.07" gradientUnits="userSpaceOnUse"><stop offset="0.02" stop-opacity="0"/><stop offset="1" stop-opacity="0.08"/></linearGradient><linearGradient id="b" x1="128.27" y1="105.9" x2="185.64" y2="106.05" gradientTransform="translate(281.47 234) rotate(180)" xlink:href="#a"/><linearGradient id="c" x1="90.21" y1="51.68" x2="147.74" y2="51.82" gradientTransform="translate(217.28 252.97) rotate(-120)" xlink:href="#a"/><linearGradient id="d" x1="118.98" y1="62.51" x2="176.4" y2="62.61" gradientTransform="translate(33.72 -27.24) rotate(60)" gradientUnits="userSpaceOnUse"><stop offset="0.02" stop-opacity="0"/><stop offset="0.05" stop-color="#231f20" stop-opacity="0"/><stop offset="0.99" stop-opacity="0.08"/></linearGradient></defs><title>HDRI Haven Logo</title><polygon class="a" points="11.01 66.66 96 17.59 96 85.5 160 85.5 160 17.59 245 66.67 245 189.33 160 238.41 160 170.5 96 170.5 96 238.41 11 189.33 11.01 66.66"/><polygon class="b" points="96 17.59 96 140.25 93 141.99 93 22.66 96 17.59"/><polygon class="b" points="93 236.68 93 145.42 96 140.25 96 167.5 160 167.5 160 170.5 96 170.5 96 238.41 93 236.68"/><polygon class="b" points="160 238.41 245 189.33 245 66.67 242 64.94 163 110.55 160 115.75 242 68.4 242.01 187.72 163 233.21 160 238.41"/><polygon class="c" points="96 17.59 11.01 66.66 11 189.33 14 191.03 93 145.42 96 140.25 14 187.6 14 68.27 93 22.66 96 17.59"/><polygon class="c" points="160 17.59 160 85.5 96 85.5 96 88.5 160 88.5 160 115.75 163 110.55 163 19.32 160 17.59"/><polygon class="c" points="160 238.41 163 233.21 163 114.02 160 115.75 160 238.41"/><rect class="d" x="103.47" y="85.5" width="56.53" height="85"/><rect class="e" x="96" y="85.5" width="56.53" height="85"/><polygon class="f" points="160 181.07 160 115.75 245 66.67 245 131.99 160 181.07"/><polygon class="g" points="96 74.93 96 140.25 11 189.33 11 124.01 96 74.93"/></svg>