<svg xmlns="http://www.w3.org/2000/svg" xmlns:xlink="http://www.w3.org/1999/xlink" viewBox="0 0 256 256"><defs><style>.a{fill:#a1d04d;}.b{opacity:0.08;}.c{fill:#fff;opacity:0.28;}.d{fill:url(#a);}.e{fill:url(#b);}.f{fill:url(#c);}</style><linearGradient id="a" x1="223.39" y1="136.86" x2="200.75" y2="98.23" gradientUnits="userSpaceOnUse"><stop offset="0.02" stop-opacity="0"/><stop offset="1" stop-opacity="0.14"/></linearGradient><linearGradient id="b" x1="31.21" y1="137.86" x2="53.06" y2="98.45" xlink:href="#a"/><linearGradient id="c" x1="202.49" y1="36.07" x2="181.03" y2="73.34" xlink:href="#a"/></defs><title>Model Haven Logo</title><polygon class="a" points="0 66.6 85.33 17.33 128 41.97 170.67 17.33 256 66.6 256 189.4 170.67 238.67 170.67 115.87 128 140.5 85.33 115.87 85.33 238.67 0 189.4 0 66.6"/><polyline class="b" points="128 140.5 256 66.6 253.34 65.06 125.2 138.89"/><polyline class="b" points="85.33 238.67 85.33 115.87 82.33 114.14 82.33 236.93"/><polyline class="b" points="170.67 238.67 256 189.4 256 66.6 253 68.33 253 187.62 173.67 233.28"/><polyline class="c" points="170.67 238.67 170.67 115.87 173.67 114.12 173.67 233.28"/><polyline class="c" points="128 41.97 170.67 17.33 174.01 19.26 130.69 43.53"/><polyline class="c" points="0 189.4 0 66.6 85.33 17.33 88.08 18.92 3 68.3 3.11 191.19"/><polygon class="d" points="170.67 172.8 170.67 115.87 256 66.6 256 118.52 170.67 172.8"/><polygon class="e" points="0 123.53 0 66.6 85.33 115.87 85.33 167.78 0 123.53"/><polygon class="f" points="128 41.97 170.67 17.09 256 66.6 213.33 91.23 128 41.97"/></svg>